<?xml version="1.0" encoding="utf-8" standalone="no"?>
<!DOCTYPE svg PUBLIC "-//W3C//DTD SVG 1.1//EN" "http://www.w3.org/Graphics/SVG/1.1/DTD/svg11.dtd">
<svg width="3600px" height="3600px" version="1.1" xmlns="http://www.w3.org/2000/svg" xmlns:xlink="http://www.w3.org/1999/xlink">
<g id="bg">
<rect x="0" y="0" width="3600px" height="3600px" style="fill:rgb(255,255,255);"/>
</g>
<g id="ideograms">
<path d="M1800.000,440.000 A1360.000,1360.000 40.000 0,1 1879.588,3157.669 L1884.270,3237.532 A1440.000,1440.000 0.000 0,0 1800.000,360.000 Z" style="stroke-width:2.0;stroke:rgb(82,82,82);stroke-linecap:round;fill:rgb(240,240,240);" />
<text x="3329.7" y="1769.2" font-size="28.6px" font-family="CMUSansSerif-DemiCondensed" style="text-anchor:start;fill:rgb(0,0,0);" transform="rotate(358.3,3329.7,1769.2)" >NZ<tspan baseline-shift="-40%" font-size="90%">L</tspan>R134493.1</text>
<path d="M1800.000,440.000 A1360.000,1360.000 40.000 0,1 1879.588,3157.669 L1884.270,3237.532 A1440.000,1440.000 0.000 0,0 1800.000,360.000 Z" style="stroke-width:2.0;stroke:rgb(82,82,82);stroke-linecap:round;fill:none;" />
<path d="M1753.547,3159.206 A1360.000,1360.000 40.000 0,1 1674.085,445.841 L1666.679,366.185 A1440.000,1440.000 0.000 0,0 1750.815,3239.160 Z" style="stroke-width:2.0;stroke:rgb(82,82,82);stroke-linecap:round;fill:rgb(255,0,0);" />
<text x="271.0" y="1854.3" font-size="28.6px" font-family="CMUSansSerif-DemiCondensed" style="text-anchor:end;fill:rgb(0,0,0);" transform="rotate(-1.7,271.0,1854.3)" >NZCP065640.1</text>
<path d="M1753.547,3159.206 A1360.000,1360.000 40.000 0,1 1674.085,445.841 L1666.679,366.185 A1440.000,1440.000 0.000 0,0 1750.815,3239.160 Z" style="stroke-width:2.0;stroke:rgb(82,82,82);stroke-linecap:round;fill:none;" />
</g>
<g id="track_0">
<path d="M 1754.005,3145.614 A 1346.400,1346.400 0.00 0,1 458.1,1910.0 L 458.1,1910.0 572.5,1899.9 679.3,1889.2 779.0,1877.9 872.1,1866.3 958.9,1854.3 1039.9,1842.3 1115.5,1830.1 1186.2,1818.0 1252.2,1805.9 1314.1,1794.0 1372.3,1782.2 1427.1,1770.7 1479.0,1759.3 1528.4,1748.1 1575.6,1737.2 1621.0,1726.4 1665.1,1715.7 1708.3,1705.1 1750.8,1694.4 1793.1,1683.7 1835.5,1672.8 1878.5,1661.7 1922.4,1650.1 1967.5,1638.0 2014.3,1625.2 2063.0,1611.5 2114.0,1596.8 2167.8,1580.9 2224.5,1563.6 2284.7,1544.6 2348.5,1523.8 2416.4,1500.9 2488.7,1475.6 2565.7,1447.7 2647.7,1416.9 2735.1,1382.9 2828.2,1345.4 2927.3,1304.0 3032.7,1258.5  A 1346.400,1346.400 0.00 0,1 2434.2,2987.7 L 2434.2,2987.7 2422.0,2967.1 2408.5,2948.8 2394.0,2932.7 2378.3,2918.6 2361.7,2906.5 2344.2,2896.1 2325.7,2887.5 2306.5,2880.3 2286.5,2874.6 2265.9,2870.3 2244.7,2867.2 2222.9,2865.3 2200.7,2864.5 2178.2,2864.7 2155.4,2865.9 2132.3,2868.0 2109.2,2871.0 2085.9,2874.8 2062.8,2879.4 2039.7,2884.7 2016.9,2890.8 1994.4,2897.6 1972.3,2905.2 1950.7,2913.4 1929.7,2922.4 1909.3,2932.2 1889.8,2942.7 1871.1,2953.9 1853.4,2966.1 1836.8,2979.1 1821.4,2993.0 1807.3,3007.8 1794.5,3023.8 1783.3,3040.8 1773.8,3059.0 1765.9,3078.5 1759.9,3099.4 1755.9,3121.7 1754.0,3145.6  Z" style="stroke-width: 2.0;  stroke: rgb(82,82,82); fill: rgb(255,0,0); opacity: 0.167;" />
<path d="M 515.911,1395.145 A 1346.400,1346.400 0.00 0,1 1675.3,459.4 L 1675.3,459.4 1677.4,479.3 1679.7,497.7 1682.3,514.7 1685.1,530.2 1688.1,544.5 1691.3,557.4 1694.6,569.2 1698.2,579.8 1701.9,589.4 1705.7,597.9 1709.7,605.4 1713.7,612.0 1717.9,617.6 1722.1,622.3 1726.4,626.2 1730.7,629.2 1735.0,631.4 1739.4,632.8 1743.7,633.4 1748.0,633.2 1752.3,632.2 1756.5,630.5 1760.6,627.9 1764.6,624.4 1768.5,620.2 1772.3,615.1 1775.9,609.1 1779.4,602.2 1782.6,594.3 1785.6,585.5 1788.4,575.7 1791.0,564.7 1793.2,552.7 1795.2,539.5 1796.9,525.0 1798.2,509.3 1799.2,492.2 1799.8,473.7 1800.0,453.6  A 1346.400,1346.400 0.00 0,1 3032.7,1258.5 L 3032.7,1258.5 2945.9,1295.0 2862.7,1327.1 2782.9,1355.2 2706.2,1379.7 2632.6,1401.0 2561.7,1419.4 2493.5,1435.2 2427.8,1448.9 2364.2,1460.5 2302.8,1470.6 2243.2,1479.1 2185.3,1486.5 2128.9,1492.9 2073.8,1498.4 2019.8,1503.2 1966.6,1507.5 1914.2,1511.3 1862.2,1514.7 1810.5,1517.8 1759.0,1520.6 1707.3,1523.1 1655.2,1525.4 1602.7,1527.3 1549.4,1528.8 1495.2,1529.8 1439.8,1530.3 1383.0,1530.1 1324.6,1529.0 1264.5,1527.0 1202.3,1523.6 1137.9,1518.9 1071.1,1512.5 1001.5,1504.1 929.1,1493.5 853.6,1480.3 774.7,1464.3 692.3,1445.0 606.1,1422.1 515.9,1395.1  Z" style="stroke-width: 2.0;  stroke: rgb(82,82,82); fill: rgb(255,0,0); opacity: 0.167;" />
<path d="M 453.862,1826.579 A 1346.400,1346.400 0.00 0,1 515.9,1395.3 L 515.9,1395.3 597.5,1422.8 674.2,1451.9 746.2,1482.5 814.1,1514.3 878.1,1547.1 938.6,1580.8 996.0,1615.1 1050.6,1649.9 1102.6,1685.1 1152.4,1720.6 1200.3,1756.3 1246.5,1792.1 1291.2,1827.9 1334.6,1863.8 1377.0,1899.8 1418.6,1935.7 1459.4,1971.7 1499.7,2007.7 1539.6,2043.9 1579.3,2080.2 1618.7,2116.9 1658.1,2154.0 1697.4,2191.6 1736.7,2230.0 1776.2,2269.1 1815.6,2309.4 1855.2,2350.8 1894.8,2393.8 1934.5,2438.4 1974.1,2485.0 2013.6,2533.9 2053.0,2585.3 2092.0,2639.5 2130.7,2696.9 2168.9,2757.9 2206.3,2822.8 2243.0,2892.0 2278.6,2965.9 2312.9,3044.9  A 1346.400,1346.400 0.00 0,1 1878.8,3144.1 L 1878.8,3144.1 1873.4,3088.8 1863.9,3035.9 1850.8,2985.2 1834.3,2936.4 1814.7,2889.3 1792.4,2843.7 1767.6,2799.5 1740.5,2756.3 1711.4,2714.2 1680.6,2672.9 1648.2,2632.3 1614.4,2592.3 1579.4,2552.9 1543.3,2513.9 1506.4,2475.3 1468.6,2437.1 1430.3,2399.2 1391.4,2361.7 1352.0,2324.5 1312.2,2287.7 1272.0,2251.3 1231.5,2215.5 1190.8,2180.2 1149.7,2145.6 1108.4,2111.8 1066.7,2078.9 1024.6,2047.0 982.1,2016.5 939.1,1987.3 895.5,1959.8 851.3,1934.1 806.1,1910.5 760.1,1889.2 712.9,1870.5 664.4,1854.7 614.5,1842.1 562.9,1833.0 509.4,1827.7 453.9,1826.6  Z" style="stroke-width: 2.0;  stroke: rgb(82,82,82); fill: rgb(255,0,0); opacity: 0.167;" />
</g>
<defs>
<pattern id="vline-sparse" width="10" height="10" patternTransform="rotate(0 0 0)" patternUnits="userSpaceOnUse"><line x1="0" y1="0" x2="0" y2="10" style="stroke:black;stroke-width:2" /></pattern>
<pattern id="checker" width="10" height="10" patternTransform="rotate(45 0 0)" patternUnits="userSpaceOnUse"><line x1="0" y1="0" x2="10" y2="0" style="stroke:black;stroke-width:5" /><line x1="0" y1="0" x2="0" y2="10" style="stroke:black;stroke-width:4" /></pattern>
<pattern id="hline" width="10" height="10" patternTransform="rotate(0 0 0)" patternUnits="userSpaceOnUse"><line x1="0" y1="0" x2="10" y2="0" style="stroke:black;stroke-width:5" /></pattern>
<pattern id="checker" width="10" height="10" patternTransform="rotate(45 0 0)" patternUnits="userSpaceOnUse"><line x1="0" y1="0" x2="10" y2="0" style="stroke:black;stroke-width:2" /><line x1="0" y1="0" x2="0" y2="10" style="stroke:black;stroke-width:2" /></pattern>
<pattern id="hline-sparse" width="10" height="10" patternTransform="rotate(0 0 0)" patternUnits="userSpaceOnUse"><line x1="0" y1="0" x2="10" y2="0" style="stroke:black;stroke-width:2" /></pattern>
<pattern id="vline" width="10" height="10" patternTransform="rotate(0 0 0)" patternUnits="userSpaceOnUse"><line x1="0" y1="0" x2="0" y2="10" style="stroke:black;stroke-width:5" /></pattern>
</defs>
</svg>
